<svg xmlns="http://www.w3.org/2000/svg" viewBox="61 53 78 65"><path fill="#222486" transform="scale(0.195312 0.195312)" d="M469.777 452.825C480.146 461.714 490.465 479.85 503.57 482.952C516.788 485.876 529.259 479.984 538.065 470.278C542.848 465.006 547.168 458.268 553.299 454.826C560.415 460.216 621.423 518.583 623.061 523.45C623.359 524.335 623.165 524.339 622.812 525.126C617.482 528.158 591.667 526.858 584.726 526.689C546.129 526.115 505.97 526.473 467.287 526.518L434.007 526.62C421.254 526.659 413.071 527.774 401.006 522.831C423.698 499.263 447.112 476.454 469.777 452.825Z"/><path fill="#222486" transform="scale(0.195312 0.195312)" d="M420.711 355.235C488.094 354.586 555.482 354.709 622.862 355.603C615.083 362.917 585.465 376.066 574.046 381.522L536.19 399.484C529.179 402.761 518.918 407.79 511.786 409.981C495.437 402.845 409.753 365.625 402.103 357.824C401.355 357.061 401.269 356.992 401.252 355.89C403.015 355.257 417.824 355.273 420.711 355.235Z"/><path fill="#222486" transform="scale(0.195312 0.195312)" d="M633.154 366.372C635.956 367.834 638.433 369.473 638.462 372.979C638.555 383.946 638.531 394.915 638.536 405.883L638.538 468.994C638.534 481.447 638.591 493.925 638.417 506.376C638.383 508.776 638.266 511.333 635.836 512.459C630.132 510.717 607.451 486.714 601.262 480.887C588.159 468.348 576.372 455.572 562.768 443.198C573.953 429.837 587.334 415.989 599.214 403.032C607.409 394.094 624.351 372.958 633.154 366.372Z"/><path fill="#222486" transform="scale(0.195312 0.195312)" d="M388.729 367.254C389.886 367.29 391.568 367.405 392.419 368.202C399.941 375.24 407.212 383.371 414.111 390.987L460.094 442.365C448.009 454.151 436.095 466.111 424.356 478.241C419.9 482.854 392.811 512.392 388.381 510.897C384.484 503.388 385.523 477.762 385.545 468.166L385.598 423.599C385.542 411.02 385.581 398.441 385.713 385.862C385.799 381.176 385.883 376.226 386.144 371.53C386.238 369.839 387.59 368.539 388.729 367.254Z"/><path fill="#EF6108" transform="scale(0.195312 0.195312)" d="M652.141 293.225C668.662 290.345 684.374 301.451 687.173 317.986C689.972 334.52 678.791 350.178 662.242 352.898C645.807 355.598 630.279 344.51 627.499 328.088C624.719 311.665 635.732 296.084 652.141 293.225Z"/><path fill="#EF6108" transform="scale(0.195312 0.195312)" d="M352.288 526.211C367.659 524.424 381.54 535.509 383.196 550.894C384.852 566.28 373.649 580.066 358.25 581.591C343.036 583.098 329.451 572.058 327.814 556.857C326.178 541.656 337.101 527.977 352.288 526.211Z"/><path fill="#EF6108" transform="scale(0.195312 0.195312)" d="M670.819 507.759C677.768 506.142 685.05 508.392 689.875 513.647C694.7 518.903 696.321 526.35 694.117 533.136C691.913 539.922 686.225 544.994 679.232 546.411C668.634 548.559 658.276 541.797 655.976 531.231C653.676 520.665 660.288 510.211 670.819 507.759Z"/><path fill="#EF6108" transform="scale(0.195312 0.195312)" d="M353.32 322.823C358.731 321.586 364.39 323.359 368.128 327.463C371.865 331.568 373.102 337.368 371.364 342.64C369.626 347.912 365.183 351.839 359.737 352.917C351.487 354.549 343.456 349.256 341.702 341.031C339.948 332.807 345.122 324.698 353.32 322.823Z"/></svg>