<svg xmlns="http://www.w3.org/2000/svg" viewBox="35 118 135 22"><path fill="#222486" transform="scale(0.195312 0.195312)" d="M407.468 641.62C419.676 640.557 425.91 642.217 435.032 650.933L435.349 642.22L447.538 642.149C447.668 663.391 447.689 684.633 447.601 705.875L434.979 705.889L435.026 697.166L431.103 700.652C427.945 703.375 423.567 705.499 419.527 706.426C411.3 708.278 402.674 706.764 395.569 702.222C388.196 697.444 383.045 689.91 381.269 681.305C379.432 672.376 381.212 663.083 386.218 655.465C391.343 647.708 398.502 643.459 407.468 641.62Z"/><path fill="white" transform="scale(0.195312 0.195312)" d="M410.497 653.664C421.864 651.614 432.734 659.189 434.747 670.562C436.76 681.936 429.15 692.781 417.77 694.757C406.442 696.724 395.657 689.157 393.653 677.835C391.65 666.514 399.182 655.704 410.497 653.664Z"/><path fill="#222486" transform="scale(0.195312 0.195312)" d="M530.604 618.485L536.973 618.489L536.926 658.566C537.937 657.014 539.028 655.516 540.196 654.079C550.58 641.312 569.747 640.475 581.989 650.967C588.26 656.387 592.082 664.105 592.592 672.378C593.294 682.387 590.278 689.752 583.837 697.157C582.35 698.537 580.899 699.89 579.214 701.028C572.274 705.715 563.72 707.359 555.537 705.58C546.945 703.692 541.556 698.821 536.91 691.764L536.827 705.03L530.679 704.945L530.604 618.485Z"/><path fill="white" transform="scale(0.195312 0.195312)" d="M556.971 650.556C565.772 648.933 574.764 652.178 580.499 659.048C586.234 665.918 587.822 675.345 584.653 683.714C581.484 692.083 574.051 698.094 565.204 699.442C551.818 701.483 539.271 692.405 537.023 679.052C534.774 665.699 543.656 653.013 556.971 650.556Z"/><path fill="#222486" transform="scale(0.195312 0.195312)" d="M322.03 652.027C322.363 651.666 322.698 651.307 323.035 650.95C340.571 632.385 370.142 642.101 370.653 667.983C370.902 680.577 370.644 693.331 370.637 705.941L358.247 705.904C358.029 697.391 358.96 670.963 357.163 664.543C356.531 662.307 355.35 660.266 353.726 658.605C348.105 652.853 337.994 652.671 332.264 658.268C326.093 664.294 327.428 676.209 327.508 684.25L327.533 705.926L315.138 705.963C314.983 695.484 315.41 684.935 315.266 674.446C315.187 668.673 314.519 662.772 310.413 658.335C305.159 652.668 294.576 652.603 289.194 658.052C284.029 663.285 284.005 671.106 284.087 677.976C284.197 687.303 284.274 696.634 284.324 705.963L271.773 705.967C271.943 684.674 271.496 663.326 271.718 641.981C275.871 641.911 280.216 642 284.385 642.021L284.505 647.823C289.578 643.776 291.76 642.667 298.177 641.64C299.456 641.516 300.743 641.474 302.028 641.516C310.999 641.747 316.218 646.038 322.03 652.027Z"/><path fill="#222486" transform="scale(0.195312 0.195312)" d="M223.772 641.64C243.385 639.293 259.253 654.024 261.471 673.067C262.593 682.699 245.235 679.986 238.879 679.966C228.463 679.907 218.047 679.922 207.632 680.011C213.467 696.527 229.474 700.419 242.349 688.546C243.847 686.89 242.993 687.269 244.761 686.804C248.216 687.788 251.298 690.229 254.371 692.257C243.785 707.429 223.82 712.154 208.41 701.389C201.434 696.491 196.726 688.99 195.348 680.579C193.791 671.523 195.95 662.221 201.337 654.776C207.034 646.993 214.42 643.127 223.772 641.64Z"/><path fill="white" transform="scale(0.195312 0.195312)" d="M224.002 653.556C236.328 652.525 243.701 656.818 247.736 668.679L232.225 668.673L207.789 668.821C211.516 659.843 214.275 656.257 224.002 653.556Z"/><path fill="#222486" transform="scale(0.195312 0.195312)" d="M786.257 658.822C787.702 655.732 788.855 653.805 791.04 651.163C798.683 641.857 815.507 641.62 823.963 649.844C832.224 657.878 831.376 669.983 831.407 680.531C831.43 688.689 831.421 696.85 831.416 705.008C829.406 705.057 828.285 705.032 826.285 704.839C822.88 700.805 829.518 662.575 820.845 654.993C808.532 644.23 792.145 650.471 789.347 666.329C788.362 671.917 788.541 677.083 788.576 682.811C788.627 687.48 789.497 701.54 787.564 704.733C786.678 705.163 783.422 705.437 783.223 704.272C780.456 688.081 790.899 649.628 764.2 649.801C759.321 649.845 754.669 651.873 751.315 655.417C743.563 663.503 744.719 676.07 744.792 686.427L744.934 705.08C742.947 705.092 740.74 704.993 738.733 704.949C739 687.966 738.991 670.979 738.704 653.997C738.634 651.351 738.18 646.391 739.967 644.499C741.78 644.243 741.926 644.285 743.673 644.418C745.308 646.117 744.717 653.93 744.721 656.939C749.768 648.728 753.535 645.444 763.354 644.157C774.614 643.34 781.45 649.319 786.257 658.822Z"/><path fill="#222486" transform="scale(0.195312 0.195312)" d="M482.943 614.147L495.003 614.058C495.043 623.517 493.984 692.636 496.007 695.547C497.301 697.41 500.247 697.486 502.288 697.789C502.422 700.743 502.313 703.112 502.188 706.06L501.274 706.067C492.019 706.079 483.868 705.555 483.197 694.199C482.654 684.988 482.892 675.808 482.903 666.582L482.943 614.147Z"/><path fill="#222486" transform="scale(0.195312 0.195312)" d="M665.344 643.932L672.01 643.886L671.903 663.119C671.854 673.42 670.667 684.824 677.864 693.314C685.719 702.58 701.819 702.696 710.39 694.374C718.641 686.365 717.49 673.698 717.467 663.12L717.398 643.992C719.209 643.94 721.425 643.626 722.931 644.458C723.872 645.769 723.599 647.746 723.582 649.466C723.684 664.37 726.525 686.149 715.618 697.617C704.878 708.908 684.771 709.292 673.768 698.088C664.234 688.38 665.327 676.413 665.376 663.942L665.344 643.932Z"/><path fill="#222486" transform="scale(0.195312 0.195312)" d="M459.682 642.46L472.014 642.411L472.049 705.933L459.683 705.836L459.682 642.46Z"/><path fill="#222486" transform="scale(0.195312 0.195312)" d="M628.519 643.106C630.693 642.863 633.641 642.926 635.887 642.906L635.466 649.498C611.055 649.01 611.461 664.698 611.925 683.502C612.101 690.609 611.957 698.308 611.932 705.43C609.337 705.543 608.125 705.64 605.507 705.324L604.966 704.519L604.784 644.303L611.568 644.307L611.772 655.031C616.594 647.555 619.99 644.983 628.519 643.106Z"/><path fill="#222486" transform="scale(0.195312 0.195312)" d="M508.555 644.303L515.52 644.283C515.781 664.669 515.855 685.057 515.742 705.444L508.534 705.59L508.555 644.303Z"/><path fill="#222486" transform="scale(0.195312 0.195312)" d="M644.053 644.029L651.122 643.996C651.463 664.162 651.115 685.149 651.125 705.396L643.996 705.384L644.053 644.029Z"/><path fill="#222486" transform="scale(0.195312 0.195312)" d="M462.941 615.252C467.307 613.682 472.122 615.929 473.723 620.284C475.324 624.639 473.11 629.47 468.766 631.101C464.379 632.748 459.49 630.508 457.874 626.11C456.257 621.712 458.531 616.838 462.941 615.252Z"/><path fill="#222486" transform="scale(0.195312 0.195312)" d="M510.148 619.321C513.689 618.065 517.583 619.873 518.909 623.388C520.235 626.903 518.505 630.833 515.017 632.229C512.698 633.157 510.059 632.759 508.117 631.189C506.174 629.619 505.232 627.121 505.654 624.659C506.075 622.198 507.794 620.156 510.148 619.321Z"/><path fill="#222486" transform="scale(0.195312 0.195312)" d="M645.555 619.289C649.125 618.102 652.98 620.046 654.148 623.623C655.315 627.2 653.35 631.044 649.766 632.191C646.211 633.33 642.404 631.383 641.245 627.835C640.087 624.286 642.012 620.468 645.555 619.289Z"/></svg>